<svg width="23" height="23" viewBox="0 0 23 23" fill="none" xmlns="http://www.w3.org/2000/svg">
<circle cx="11.5" cy="11.5" r="10.75" stroke="white" stroke-width="1.5"/>
<path d="M14.8375 7.4125C14.6892 7.4125 14.5442 7.45649 14.4208 7.5389C14.2975 7.62131 14.2014 7.73844 14.1446 7.87549C14.0878 8.01253 14.073 8.16333 14.1019 8.30882C14.1308 8.4543 14.2023 8.58794 14.3072 8.69283C14.4121 8.79772 14.5457 8.86915 14.6912 8.89809C14.8367 8.92703 14.9875 8.91218 15.1245 8.85541C15.2616 8.79864 15.3787 8.70251 15.4611 8.57918C15.5435 8.45584 15.5875 8.31084 15.5875 8.1625C15.5875 7.96359 15.5085 7.77282 15.3678 7.63217C15.2272 7.49152 15.0364 7.4125 14.8375 7.4125ZM17.7125 8.925C17.7003 8.40644 17.6032 7.89338 17.425 7.40625C17.2661 6.98946 17.0187 6.61205 16.7 6.3C16.3905 5.97964 16.0122 5.73386 15.5938 5.58125C15.1079 5.3976 14.5943 5.29826 14.075 5.2875C13.4125 5.25 13.2 5.25 11.5 5.25C9.8 5.25 9.5875 5.25 8.925 5.2875C8.40572 5.29826 7.89209 5.3976 7.40625 5.58125C6.98855 5.73541 6.61058 5.98098 6.3 6.3C5.97964 6.60949 5.73386 6.98777 5.58125 7.40625C5.3976 7.89209 5.29826 8.40572 5.2875 8.925C5.25 9.5875 5.25 9.8 5.25 11.5C5.25 13.2 5.25 13.4125 5.2875 14.075C5.29826 14.5943 5.3976 15.1079 5.58125 15.5938C5.73386 16.0122 5.97964 16.3905 6.3 16.7C6.61058 17.019 6.98855 17.2646 7.40625 17.4187C7.89209 17.6024 8.40572 17.7017 8.925 17.7125C9.5875 17.75 9.8 17.75 11.5 17.75C13.2 17.75 13.4125 17.75 14.075 17.7125C14.5943 17.7017 15.1079 17.6024 15.5938 17.4187C16.0122 17.2661 16.3905 17.0204 16.7 16.7C17.0202 16.3891 17.2677 16.0114 17.425 15.5938C17.6032 15.1066 17.7003 14.5936 17.7125 14.075C17.7125 13.4125 17.75 13.2 17.75 11.5C17.75 9.8 17.75 9.5875 17.7125 8.925ZM16.5875 14C16.5829 14.3967 16.5111 14.7898 16.375 15.1625C16.2752 15.4345 16.1149 15.6803 15.9062 15.8813C15.7035 16.0878 15.4583 16.2478 15.1875 16.35C14.8148 16.4861 14.4217 16.558 14.025 16.5625C13.4 16.5938 13.1687 16.6 11.525 16.6C9.88125 16.6 9.65 16.6 9.025 16.5625C8.61306 16.5702 8.20287 16.5068 7.8125 16.375C7.55361 16.2675 7.3196 16.108 7.125 15.9062C6.91756 15.7055 6.75928 15.4595 6.6625 15.1875C6.50991 14.8095 6.42528 14.4075 6.4125 14C6.4125 13.375 6.375 13.1438 6.375 11.5C6.375 9.85625 6.375 9.625 6.4125 9C6.4153 8.59441 6.48934 8.19247 6.63125 7.8125C6.74128 7.54869 6.91017 7.31354 7.125 7.125C7.31488 6.91011 7.54955 6.73943 7.8125 6.625C8.19347 6.48753 8.595 6.41567 9 6.4125C9.625 6.4125 9.85625 6.375 11.5 6.375C13.1438 6.375 13.375 6.375 14 6.4125C14.3967 6.41705 14.7898 6.4889 15.1625 6.625C15.4465 6.73041 15.7014 6.90178 15.9062 7.125C16.1111 7.31699 16.2711 7.55171 16.375 7.8125C16.5139 8.19308 16.5858 8.59486 16.5875 9C16.6187 9.625 16.625 9.85625 16.625 11.5C16.625 13.1438 16.6187 13.375 16.5875 14ZM11.5 8.29375C10.8661 8.29499 10.2469 8.48408 9.72041 8.83714C9.19397 9.19019 8.78399 9.69137 8.54227 10.2773C8.30056 10.8633 8.23795 11.5078 8.36237 12.1293C8.48679 12.7509 8.79265 13.3216 9.2413 13.7694C9.68995 14.2171 10.2613 14.5219 10.883 14.6451C11.5048 14.7683 12.1492 14.7044 12.7347 14.4616C13.3202 14.2187 13.8205 13.8078 14.1726 13.2806C14.5246 12.7535 14.7125 12.1339 14.7125 11.5C14.7133 11.0782 14.6308 10.6604 14.4695 10.2706C14.3083 9.88082 14.0716 9.52676 13.773 9.22878C13.4745 8.93081 13.12 8.6948 12.7299 8.53433C12.3398 8.37386 11.9218 8.2921 11.5 8.29375ZM11.5 13.5813C11.0884 13.5813 10.686 13.4592 10.3437 13.2305C10.0015 13.0018 9.7347 12.6768 9.57718 12.2965C9.41965 11.9162 9.37844 11.4977 9.45874 11.094C9.53905 10.6902 9.73727 10.3194 10.0283 10.0283C10.3194 9.73727 10.6902 9.53905 11.094 9.45874C11.4977 9.37844 11.9162 9.41965 12.2965 9.57718C12.6768 9.7347 13.0018 10.0015 13.2305 10.3437C13.4592 10.686 13.5813 11.0884 13.5813 11.5C13.5813 11.7733 13.5274 12.044 13.4228 12.2965C13.3182 12.549 13.1649 12.7784 12.9717 12.9717C12.7784 13.1649 12.549 13.3182 12.2965 13.4228C12.044 13.5274 11.7733 13.5813 11.5 13.5813Z" fill="white"/>
</svg>
