<svg width="23" height="23" viewBox="0 0 23 23" fill="none" xmlns="http://www.w3.org/2000/svg">
<circle cx="11.5" cy="11.5" r="10.75" stroke="white" stroke-width="1.5"/>
<g clip-path="url(#clip0_1_118)">
<path d="M14.9373 8.6242C14.3777 8.62396 13.8269 8.76236 13.3339 9.02703C13.2889 8.90854 13.2089 8.80655 13.1046 8.7346C13.0003 8.66265 12.8765 8.62414 12.7498 8.6242H10.2498C10.1677 8.62415 10.0864 8.64028 10.0105 8.67168C9.93469 8.70307 9.86577 8.7491 9.80772 8.80715C9.74968 8.8652 9.70364 8.93411 9.67225 9.00996C9.64086 9.08581 9.62472 9.16711 9.62477 9.2492V16.7492C9.62472 16.8313 9.64085 16.9126 9.67225 16.9884C9.70364 17.0643 9.74967 17.1332 9.80772 17.1912C9.86577 17.2493 9.93468 17.2953 10.0105 17.3267C10.0864 17.3581 10.1677 17.3742 10.2498 17.3742H12.7498C12.8319 17.3742 12.9132 17.3581 12.989 17.3267C13.0649 17.2953 13.1338 17.2493 13.1918 17.1912C13.2499 17.1332 13.2959 17.0643 13.3273 16.9884C13.3587 16.9126 13.3748 16.8313 13.3748 16.7492V13.3117C13.3748 13.1459 13.4406 12.987 13.5578 12.8698C13.675 12.7525 13.834 12.6867 13.9998 12.6867C14.1655 12.6867 14.3245 12.7525 14.4417 12.8698C14.5589 12.987 14.6248 13.1459 14.6248 13.3117V16.7492C14.6247 16.8313 14.6409 16.9126 14.6722 16.9884C14.7036 17.0643 14.7497 17.1332 14.8077 17.1912C14.8658 17.2493 14.9347 17.2953 15.0105 17.3267C15.0864 17.3581 15.1677 17.3742 15.2498 17.3742H17.7498C17.8319 17.3742 17.9132 17.3581 17.989 17.3267C18.0649 17.2953 18.1338 17.2493 18.1918 17.1912C18.2499 17.1332 18.2959 17.0643 18.3273 16.9884C18.3587 16.9126 18.3748 16.8313 18.3748 16.7492V12.0617C18.3736 11.1504 18.0111 10.2767 17.3667 9.63227C16.7223 8.98786 15.8486 8.62533 14.9373 8.6242ZM17.1248 16.1242H15.8748V13.3117C15.8748 12.8144 15.6772 12.3375 15.3256 11.9859C14.974 11.6342 14.497 11.4367 13.9998 11.4367C13.5025 11.4367 13.0256 11.6342 12.6739 11.9859C12.3223 12.3375 12.1248 12.8144 12.1248 13.3117V16.1242H10.8748V9.8742H12.1248V10.3137C12.1248 10.4432 12.1651 10.5694 12.24 10.6751C12.315 10.7807 12.4208 10.8604 12.543 10.9033C12.6652 10.9462 12.7977 10.9501 12.9222 10.9144C13.0467 10.8788 13.1571 10.8053 13.238 10.7043C13.5185 10.348 13.9033 10.0883 14.3385 9.9613C14.7738 9.8343 15.2378 9.8464 15.6658 9.99589C16.0939 10.1454 16.4646 10.4248 16.7261 10.7952C16.9877 11.1655 17.127 11.6083 17.1248 12.0617V16.1242ZM8.37477 8.6242H5.87477C5.79268 8.62415 5.71139 8.64028 5.63554 8.67168C5.55969 8.70307 5.49077 8.7491 5.43272 8.80715C5.37468 8.8652 5.32864 8.93411 5.29725 9.00996C5.26586 9.08581 5.24972 9.16711 5.24977 9.2492V16.7492C5.24972 16.8313 5.26585 16.9126 5.29725 16.9884C5.32864 17.0643 5.37467 17.1332 5.43272 17.1912C5.49077 17.2493 5.55968 17.2953 5.63553 17.3267C5.71138 17.3581 5.79268 17.3742 5.87477 17.3742H8.37477C8.45686 17.3742 8.53815 17.3581 8.614 17.3267C8.68985 17.2953 8.75877 17.2493 8.81682 17.1912C8.87486 17.1332 8.9209 17.0643 8.95229 16.9884C8.98368 16.9126 8.99982 16.8313 8.99977 16.7492V9.2492C8.99981 9.16711 8.98368 9.08581 8.95229 9.00996C8.9209 8.93411 8.87486 8.8652 8.81681 8.80715C8.75877 8.7491 8.68985 8.70307 8.614 8.67168C8.53815 8.64028 8.45686 8.62415 8.37477 8.6242ZM7.74977 16.1242H6.49977V9.8742H7.74977V16.1242ZM7.13392 3.96357C6.8604 3.9472 6.5864 3.98663 6.3286 4.07947C6.07079 4.17232 5.83456 4.31663 5.63428 4.50363C5.43399 4.69063 5.27384 4.91642 5.16355 5.16726C5.05327 5.4181 4.99516 5.68875 4.99275 5.96275C4.99035 6.23676 5.0437 6.50839 5.14957 6.76112C5.25544 7.01386 5.41161 7.24242 5.60858 7.43291C5.80555 7.6234 6.03921 7.77183 6.29535 7.86918C6.55149 7.96653 6.82475 8.01077 7.09852 7.9992H7.11622C7.39047 8.01549 7.66516 7.97569 7.9235 7.88223C8.18185 7.78877 8.41843 7.64362 8.61878 7.45564C8.81913 7.26766 8.97906 7.0408 9.08877 6.78893C9.19849 6.53706 9.2557 6.26546 9.2569 5.99073C9.25811 5.716 9.20328 5.44392 9.09578 5.19109C8.98828 4.93827 8.83035 4.71002 8.63165 4.52029C8.43296 4.33056 8.19766 4.18334 7.94015 4.08762C7.68263 3.9919 7.4083 3.94969 7.13392 3.96357H7.13392ZM7.11622 6.7492H7.09852C6.99044 6.76232 6.88079 6.75218 6.77695 6.71946C6.67311 6.68674 6.57746 6.6322 6.49642 6.55949C6.41538 6.48677 6.35083 6.39757 6.30709 6.29787C6.26335 6.19816 6.24143 6.09026 6.24281 5.98139C6.24281 5.51508 6.59254 5.21356 7.13392 5.21356C7.24311 5.19901 7.35415 5.20802 7.45956 5.23999C7.56497 5.27196 7.6623 5.32615 7.74501 5.39891C7.82771 5.47167 7.89387 5.5613 7.93901 5.66178C7.98416 5.76225 8.00725 5.87124 8.00672 5.98139C8.00672 6.4477 7.65699 6.7492 7.11622 6.7492Z" fill="white"/>
</g>
<defs>
<clipPath id="clip0_1_118">
<rect width="15" height="15" fill="white" transform="translate(4 3)"/>
</clipPath>
</defs>
</svg>
