<svg width="17" height="16" viewBox="0 0 17 16" fill="none" xmlns="http://www.w3.org/2000/svg">
<path d="M5.49871 3.99999C5.30093 3.99999 5.10759 4.05864 4.94314 4.16852C4.77869 4.2784 4.65052 4.43458 4.57483 4.61731C4.49914 4.80003 4.47934 5.0011 4.51792 5.19508C4.55651 5.38906 4.65175 5.56725 4.7916 5.7071C4.93145 5.84695 5.10964 5.94219 5.30362 5.98078C5.4976 6.01936 5.69867 5.99956 5.88139 5.92387C6.06412 5.84818 6.2203 5.72001 6.33018 5.55556C6.44006 5.39111 6.49871 5.19777 6.49871 4.99999C6.49871 4.73477 6.39335 4.48042 6.20582 4.29288C6.01828 4.10535 5.76393 3.99999 5.49871 3.99999ZM14.5787 7.13999L8.97204 1.52666C8.90975 1.46487 8.83587 1.41599 8.75465 1.38281C8.67342 1.34963 8.58645 1.33282 8.49871 1.33332H2.49871C2.3219 1.33332 2.15233 1.40356 2.0273 1.52859C1.90228 1.65361 1.83204 1.82318 1.83204 1.99999V7.99999C1.83154 8.08773 1.84835 8.1747 1.88153 8.25593C1.9147 8.33715 1.96359 8.41103 2.02538 8.47332L7.63871 14.08C8.01371 14.4545 8.52204 14.6649 9.05204 14.6649C9.58204 14.6649 10.0904 14.4545 10.4654 14.08L14.5787 9.99999C14.9532 9.62499 15.1636 9.11666 15.1636 8.58666C15.1636 8.05666 14.9532 7.54833 14.5787 7.17332V7.13999ZM13.6387 9.01999L9.51871 13.1333C9.3938 13.2575 9.22483 13.3272 9.04871 13.3272C8.87259 13.3272 8.70362 13.2575 8.57871 13.1333L3.16538 7.72666V2.66666H8.22538L13.6387 8.07999C13.7005 8.14228 13.7494 8.21616 13.7826 8.29739C13.8157 8.37861 13.8326 8.46559 13.832 8.55332C13.8313 8.72822 13.7619 8.89582 13.6387 9.01999Z" fill="#373737"/>
</svg>
