<svg width="23" height="23" viewBox="0 0 23 23" fill="none" xmlns="http://www.w3.org/2000/svg">
<circle cx="11.5" cy="11.5" r="10.75" stroke="white" stroke-width="1.5"/>
<path d="M17.75 7.62489C17.2802 7.8287 16.7834 7.96343 16.275 8.02489C16.8114 7.70446 17.2133 7.20038 17.4062 6.60614C16.9022 6.90618 16.3505 7.11757 15.775 7.23114C15.3903 6.81399 14.8781 6.53632 14.3186 6.44167C13.7592 6.34702 13.1841 6.44074 12.6836 6.70813C12.1831 6.97552 11.7856 7.40147 11.5533 7.91916C11.321 8.43685 11.2671 9.01701 11.4 9.56864C10.3809 9.51709 9.38403 9.25173 8.47416 8.7898C7.56429 8.32787 6.76178 7.67969 6.11875 6.88739C5.89321 7.28124 5.7747 7.72728 5.775 8.18114C5.7742 8.60263 5.87764 9.01777 6.0761 9.38961C6.27456 9.76146 6.56189 10.0785 6.9125 10.3124C6.50499 10.3013 6.10618 10.1919 5.75 9.99364V10.0249C5.75305 10.6154 5.96 11.1868 6.33582 11.6424C6.71165 12.0979 7.23328 12.4097 7.8125 12.5249C7.58953 12.5927 7.35805 12.6285 7.125 12.6311C6.96368 12.6293 6.80276 12.6146 6.64375 12.5874C6.80869 13.0954 7.12789 13.5394 7.55692 13.8575C7.98595 14.1756 8.50348 14.3521 9.0375 14.3624C8.13575 15.0719 7.02243 15.4592 5.875 15.4624C5.66608 15.4631 5.45733 15.4505 5.25 15.4249C6.42152 16.1813 7.78676 16.5828 9.18125 16.5811C10.1436 16.5911 11.0982 16.4093 11.9894 16.0462C12.8807 15.6831 13.6906 15.1461 14.372 14.4664C15.0534 13.7868 15.5925 12.9783 15.9578 12.088C16.3232 11.1976 16.5075 10.2435 16.5 9.28114C16.5 9.17489 16.5 9.06239 16.5 8.94989C16.9904 8.58414 17.4134 8.13578 17.75 7.62489Z" fill="white"/>
</svg>
