<svg width="23" height="23" viewBox="0 0 23 23" fill="none" xmlns="http://www.w3.org/2000/svg">
<circle cx="11.5" cy="11.5" r="10.75" stroke="white" stroke-width="1.5"/>
<path d="M18.3751 10.0689C18.406 9.17433 18.2104 8.28643 17.8064 7.48767C17.5323 7.15992 17.1518 6.93874 16.7314 6.86267C14.9923 6.70488 13.2461 6.6402 11.5001 6.66892C9.76054 6.6389 8.02058 6.70149 6.28764 6.85642C5.94503 6.91875 5.62796 7.07945 5.37514 7.31892C4.81264 7.83767 4.75014 8.72517 4.68764 9.47517C4.59696 10.8237 4.59696 12.1767 4.68764 13.5252C4.70572 13.9473 4.76857 14.3663 4.87514 14.7752C4.9505 15.0908 5.10297 15.3829 5.31889 15.6252C5.57343 15.8773 5.89788 16.0472 6.25014 16.1127C7.59759 16.279 8.95528 16.3479 10.3126 16.3189C12.5001 16.3502 14.4189 16.3189 16.6876 16.1439C17.0485 16.0825 17.3821 15.9124 17.6439 15.6564C17.8189 15.4814 17.9496 15.2671 18.0251 15.0314C18.2487 14.3456 18.3584 13.6277 18.3501 12.9064C18.3751 12.5564 18.3751 10.4439 18.3751 10.0689ZM10.0876 13.2814V9.41267L13.7876 11.3564C12.7501 11.9314 11.3814 12.5814 10.0876 13.2814Z" fill="white"/>
</svg>
